<?xml version="1.0" encoding="UTF-8" standalone="no"?>
<!-- Created with Inkscape (http://www.inkscape.org/) -->

<svg
   width="1080"
   height="1080"
   viewBox="0 0 285.75 285.75"
   version="1.1"
   id="svg1"
   xml:space="preserve"
   inkscape:version="1.3.2 (091e20e, 2023-11-25, custom)"
   sodipodi:docname="logo.svg"
   xmlns:inkscape="http://www.inkscape.org/namespaces/inkscape"
   xmlns:sodipodi="http://sodipodi.sourceforge.net/DTD/sodipodi-0.dtd"
   xmlns="http://www.w3.org/2000/svg"
   xmlns:svg="http://www.w3.org/2000/svg"><sodipodi:namedview
     id="namedview1"
     pagecolor="#505050"
     bordercolor="#ffffff"
     borderopacity="1"
     inkscape:showpageshadow="0"
     inkscape:pageopacity="0"
     inkscape:pagecheckerboard="1"
     inkscape:deskcolor="#505050"
     inkscape:document-units="px"
     inkscape:zoom="0.34609638"
     inkscape:cx="261.48785"
     inkscape:cy="582.20776"
     inkscape:window-width="1920"
     inkscape:window-height="991"
     inkscape:window-x="1699"
     inkscape:window-y="-9"
     inkscape:window-maximized="1"
     inkscape:current-layer="layer1" /><defs
     id="defs1" /><g
     inkscape:label="Leaves"
     inkscape:groupmode="layer"
     id="layer1"><circle
       style="fill:#009e06;fill-opacity:1;stroke-width:0.351399"
       id="path1"
       cx="107.73181"
       cy="192.79782"
       r="64.98069" /><circle
       style="fill:#009e06;fill-opacity:1;stroke-width:0.351399"
       id="path1-1"
       cx="72.700729"
       cy="161.69763"
       r="64.98069" /><circle
       style="fill:#009906;fill-opacity:1;stroke-width:0.351399"
       id="path1-1-6"
       cx="79.150536"
       cy="110.09594"
       r="64.98069" /><circle
       style="fill:#009406;fill-opacity:1;stroke-width:0.351399"
       id="path1-1-6-3"
       cx="104.46729"
       cy="76.969048"
       r="64.98069" /><circle
       style="fill:#008f06;fill-opacity:1;stroke-width:0.351399"
       id="path1-1-6-3-7"
       cx="152.02689"
       cy="66.210648"
       r="64.98069" /><circle
       style="fill:#008a06;fill-opacity:1;stroke-width:0.351399"
       id="path1-1-6-3-7-3"
       cx="194.0715"
       cy="84.883568"
       r="64.98069" /><circle
       style="fill:#008f06;fill-opacity:1;stroke-width:0.351399"
       id="path1-1-6-3-7-3-7"
       cx="210.97043"
       cy="119.78099"
       r="64.98069" /><circle
       style="fill:#009406;fill-opacity:1;stroke-width:0.351399"
       id="path1-1-6-3-7-3-7-2"
       cx="212.96716"
       cy="161.73718"
       r="64.98069" /><circle
       style="fill:#009406;fill-opacity:1;stroke-width:0.351399"
       id="path1-1-6-3-7-3-7-2-8-9"
       cx="142.55588"
       cy="194.33205"
       r="64.98069" /><circle
       style="fill:#009406;fill-opacity:1;stroke-width:0.351399"
       id="path1-1-6-3-7-3-7-2-8"
       cx="181.65051"
       cy="190.95844"
       r="64.98069" /></g><g
     inkscape:groupmode="layer"
     id="layer2"
     inkscape:label="Balance"><rect
       style="fill:#321402;fill-opacity:1;stroke:none;stroke-width:1.99022;stroke-dasharray:none;stroke-opacity:1"
       id="rect13-3"
       width="15.27109"
       height="7.9713869"
       x="113.28294"
       y="-39.219467"
       ry="3.9856935"
       transform="matrix(0.3389276,0.94081246,-0.94098842,0.33843875,0,0)" /><rect
       style="fill:#321402;fill-opacity:1;stroke:none;stroke-width:2.06398;stroke-dasharray:none;stroke-opacity:1"
       id="rect13-3-5"
       width="15.405761"
       height="8.4982338"
       x="66.934532"
       y="97.338921"
       ry="4.2491169"
       transform="matrix(-0.36094207,0.93258824,0.94827257,0.3174573,0,0)" /><ellipse
       style="fill:#321402;fill-opacity:1;stroke:none;stroke-width:2.10975;stroke-dasharray:none;stroke-opacity:1"
       id="path13"
       cx="71.625267"
       cy="98.524445"
       rx="5.1016116"
       ry="4.9833622" /><rect
       style="fill:#321402;fill-opacity:1;stroke:none;stroke-width:1.99022;stroke-dasharray:none;stroke-opacity:1"
       id="rect13-3-8"
       width="15.27109"
       height="7.9713869"
       x="160.40091"
       y="-171.20576"
       ry="3.9856935"
       transform="matrix(0.3389276,0.94081246,-0.94098842,0.33843875,0,0)" /><rect
       style="fill:#321402;fill-opacity:1;stroke:none;stroke-width:2.07688;stroke-dasharray:none;stroke-opacity:1"
       id="rect13-3-5-1"
       width="15.430277"
       height="8.5911446"
       x="22.924072"
       y="228.13026"
       ry="4.2955723"
       transform="matrix(-0.36474736,0.93110653,0.94941501,0.31402409,0,0)" /><ellipse
       style="fill:#321402;fill-opacity:1;stroke:none;stroke-width:2.12368;stroke-dasharray:none;stroke-opacity:1"
       id="path13-5"
       cx="211.72482"
       cy="98.184319"
       rx="5.1691828"
       ry="4.9833622" /><circle
       style="fill:#321402;fill-opacity:1;stroke:none;stroke-width:2.12422;stroke-dasharray:none;stroke-opacity:1"
       id="path3"
       cx="141.66389"
       cy="78.006699"
       r="16.115259" /><circle
       style="fill:#321402;fill-opacity:1;stroke:none;stroke-width:2.1151;stroke-dasharray:none;stroke-opacity:1"
       id="path4"
       cx="141.56126"
       cy="54.282326"
       r="10.473507" /><rect
       style="fill:#321402;fill-opacity:1;stroke:none;stroke-width:2.03455;stroke-dasharray:none;stroke-opacity:1"
       id="rect4"
       width="15.227081"
       height="17.679716"
       x="154.39568"
       y="-109.52705"
       transform="matrix(0.55048831,0.83484287,-0.51275956,0.85853225,0,0)" /><circle
       style="fill:#321402;fill-opacity:1;stroke:none;stroke-width:2.08781;stroke-dasharray:none;stroke-opacity:1"
       id="path5"
       cx="72.019302"
       cy="78.270042"
       r="9.1896582" /><circle
       style="fill:#321402;fill-opacity:1;stroke:none;stroke-width:2.08781;stroke-dasharray:none;stroke-opacity:1"
       id="path5-1"
       cx="211.33142"
       cy="78.245918"
       r="9.1896582" /><path
       style="fill:#321402;fill-opacity:1;stroke:none;stroke-width:2.02213;stroke-dasharray:none;stroke-opacity:1"
       d="m 78.247116,72.390515 c 36.345374,-23.467342 51.483314,-3.837805 54.350264,-3.328151 2.91528,0.518246 -1.87238,10.376528 -4.32003,8.984304 -1.95221,-1.110424 -6.81483,-9.75627 -18.15143,-8.814112 -13.184389,1.095723 -31.224466,12.179226 -31.224466,12.179226 z"
       id="path6"
       sodipodi:nodetypes="cssscc" /><path
       style="fill:#321402;fill-opacity:1;stroke:none;stroke-width:2.02213;stroke-dasharray:none;stroke-opacity:1"
       d="M 204.83549,72.411825 C 168.4901,48.944483 153.35215,68.57402 150.4852,69.083674 c -2.91528,0.518246 1.87238,10.376528 4.32003,8.984304 1.95222,-1.110424 6.81484,-9.75627 18.15145,-8.814112 13.18439,1.095723 31.22447,12.179226 31.22447,12.179226 z"
       id="path6-6"
       sodipodi:nodetypes="cssscc" /><path
       style="fill:#321402;fill-opacity:1;stroke:none;stroke-width:1.965;stroke-dasharray:none;stroke-opacity:1"
       id="path7"
       sodipodi:type="arc"
       sodipodi:cx="141.42857"
       sodipodi:cy="101.22053"
       sodipodi:rx="16.627413"
       sodipodi:ry="16.627413"
       sodipodi:start="0"
       sodipodi:end="3.1472744"
       sodipodi:arc-type="slice"
       d="m 158.05599,101.22053 a 16.627413,16.627413 0 0 1 -8.341,14.41548 16.627413,16.627413 0 0 1 -16.65461,-0.0473 16.627413,16.627413 0 0 1 -8.25895,-14.46264 l 16.62714,0.0945 z" /><path
       style="fill:#321402;fill-opacity:1;stroke:none;stroke-width:2.08575;stroke-dasharray:none;stroke-opacity:1"
       id="path8"
       sodipodi:type="arc"
       sodipodi:cx="141.62885"
       sodipodi:cy="-275.06937"
       sodipodi:rx="25.676987"
       sodipodi:ry="25.676987"
       sodipodi:start="0"
       sodipodi:end="3.1359747"
       sodipodi:open="true"
       sodipodi:arc-type="arc"
       d="m 167.30583,-275.06937 a 25.676987,25.676987 0 0 1 -25.60486,25.67689 25.676987,25.676987 0 0 1 -25.74871,-25.53264"
       transform="scale(1,-1)" /><rect
       style="fill:#321402;fill-opacity:1;stroke:none;stroke-width:2.04524;stroke-dasharray:none;stroke-opacity:1"
       id="rect8"
       width="114.18674"
       height="17.200773"
       x="84.776817"
       y="265.60153"
       ry="5.0002551" /><rect
       style="fill:#321402;fill-opacity:1;stroke:none;stroke-width:2.04524;stroke-dasharray:none;stroke-opacity:1"
       id="rect9"
       width="9.7312365"
       height="8.7915058"
       x="84.776817"
       y="274.0108" /><rect
       style="fill:#321402;fill-opacity:1;stroke:none;stroke-width:2.04524;stroke-dasharray:none;stroke-opacity:1"
       id="rect10"
       width="6.0043797"
       height="8.6959457"
       x="192.95917"
       y="274.10635" /><rect
       style="fill:#321402;fill-opacity:1;stroke:none;stroke-width:2.29739;stroke-dasharray:none;stroke-opacity:1"
       id="rect11"
       width="17.703608"
       height="142.98027"
       x="132.57433"
       y="112.95092" /><path
       style="fill:#321402;fill-opacity:1;stroke:none;stroke-width:2.11194;stroke-dasharray:none;stroke-opacity:1"
       id="path11"
       sodipodi:type="arc"
       sodipodi:cx="109.68465"
       sodipodi:cy="139.51489"
       sodipodi:rx="45.677608"
       sodipodi:ry="43.097492"
       sodipodi:start="0"
       sodipodi:end="2.6128079"
       sodipodi:open="true"
       sodipodi:arc-type="arc"
       d="m 155.36226,139.51489 a 45.677608,43.097492 0 0 1 -33.74101,41.59992 45.677608,43.097492 0 0 1 -51.3756,-19.8579"
       transform="rotate(14.506009)" /><path
       style="fill:#321402;fill-opacity:1;stroke:none;stroke-width:2.11194;stroke-dasharray:none;stroke-opacity:1"
       id="path11-2"
       sodipodi:type="arc"
       sodipodi:cx="244.85179"
       sodipodi:cy="104.60635"
       sodipodi:rx="45.677608"
       sodipodi:ry="43.097492"
       sodipodi:start="0"
       sodipodi:end="2.6128079"
       sodipodi:open="true"
       sodipodi:arc-type="arc"
       d="m 290.5294,104.60635 a 45.677608,43.097492 0 0 1 -33.74101,41.59992 45.677608,43.097492 0 0 1 -51.3756,-19.8579"
       transform="rotate(14.506009)" /><rect
       style="fill:#321402;fill-opacity:1;stroke:none;stroke-width:2.75155;stroke-dasharray:none;stroke-opacity:1"
       id="rect12"
       width="9.9329386"
       height="76.447937"
       x="96.65506"
       y="74.726013"
       transform="rotate(20.717161)" /><rect
       style="fill:#321402;fill-opacity:1;stroke:none;stroke-width:2.75155;stroke-dasharray:none;stroke-opacity:1"
       id="rect12-9"
       width="9.9329386"
       height="76.447937"
       x="-37.215786"
       y="125.40403"
       transform="matrix(-0.93533812,0.35375501,0.35375501,0.93533812,0,0)" /><rect
       style="fill:#321402;fill-opacity:1;stroke:none;stroke-width:2.75155;stroke-dasharray:none;stroke-opacity:1"
       id="rect12-9-4"
       width="9.9329386"
       height="76.447937"
       x="-168.4677"
       y="173.18867"
       transform="matrix(-0.93533812,0.35375501,0.35375501,0.93533812,0,0)" /><rect
       style="fill:#321402;fill-opacity:1;stroke:none;stroke-width:2.75155;stroke-dasharray:none;stroke-opacity:1"
       id="rect12-0"
       width="9.9329386"
       height="76.447937"
       x="227.56503"
       y="23.658291"
       transform="rotate(20.717161)" /></g></svg>
